<?xml version="1.0" encoding="UTF-8" standalone="no"?>
<!-- Created with Inkscape (http://www.inkscape.org/) -->

<svg
   width="757.86426"
   height="364.39816"
   viewBox="0 0 200.51826 96.413681"
   version="1.1"
   id="svg1"
   inkscape:version="1.4.2 (f4327f4, 2025-05-13)"
   sodipodi:docname="bus.svg"
   inkscape:export-filename=".\bus.png"
   inkscape:export-xdpi="96"
   inkscape:export-ydpi="96"
   xmlns:inkscape="http://www.inkscape.org/namespaces/inkscape"
   xmlns:sodipodi="http://sodipodi.sourceforge.net/DTD/sodipodi-0.dtd"
   xmlns="http://www.w3.org/2000/svg"
   xmlns:svg="http://www.w3.org/2000/svg">
  <sodipodi:namedview
     id="namedview1"
     pagecolor="#ffffff"
     bordercolor="#666666"
     borderopacity="1.0"
     inkscape:showpageshadow="2"
     inkscape:pageopacity="0.0"
     inkscape:pagecheckerboard="0"
     inkscape:deskcolor="#d1d1d1"
     inkscape:document-units="mm"
     inkscape:zoom="0.78840488"
     inkscape:cx="504.81676"
     inkscape:cy="62.785"
     inkscape:window-width="1920"
     inkscape:window-height="1129"
     inkscape:window-x="1912"
     inkscape:window-y="-8"
     inkscape:window-maximized="1"
     inkscape:current-layer="layer1" />
  <defs
     id="defs1" />
  <g
     inkscape:label="Lager 1"
     inkscape:groupmode="layer"
     id="layer1"
     transform="translate(-1.4211206,-55.183348)">
    <g
       id="g1"
       style="fill:#404040;fill-opacity:1">
      <ellipse
         style="fill:#404040;fill-opacity:1;stroke-width:2.5594;stroke-linecap:round;stroke-linejoin:round;stroke-dasharray:none"
         id="path14"
         cx="25.570969"
         cy="89.655968"
         rx="6.5923982"
         ry="7.5537896" />
      <ellipse
         style="fill:#404040;fill-opacity:1;stroke-width:3.18176;stroke-linecap:round;stroke-linejoin:round;stroke-dasharray:none"
         id="ellipse14"
         cx="25.359449"
         cy="107.78506"
         rx="6.5923982"
         ry="11.674039" />
    </g>
    <path
       id="rect1"
       style="fill:#333333;stroke-width:0.153133;stroke-linecap:round;stroke-linejoin:round;fill-opacity:1"
       d="m 5.8158955,55.183348 c -2.4347932,0 -4.3947749,1.959981 -4.3947749,4.394775 v 76.087557 c 0,2.43479 1.9599817,4.39477 4.3947749,4.39477 H 25.120123 c 1.37366,-0.13712 2.319112,-1.2628 2.702543,-2.63195 0.02312,-0.0825 0.0438,-0.16588 0.06281,-0.25004 l 0.02572,-0.11367 h 0.01197 a 15.244921,15.244921 0 0 1 14.837673,-11.83724 15.244921,15.244921 0 0 1 14.834681,11.82228 h 0.01256 l 0.02572,0.11367 c 0.01725,0.0764 0.03619,0.15224 0.05682,0.22731 0.404777,1.4723 1.458103,2.66905 2.993854,2.66905 h 0.194406 v 5.9e-4 h 81.25098 c 1.36014,-0.13062 2.30206,-1.22903 2.69657,-2.57573 0.0296,-0.10105 0.0562,-0.20387 0.0795,-0.30745 l 0.0257,-0.11367 h 0.009 a 15.244921,15.244921 0 0 1 14.83468,-11.83604 15.244921,15.244921 0 0 1 14.85861,11.83604 h 0.006 l 0.0257,0.11367 c 0.33494,1.48347 1.31394,2.74269 2.77611,2.88318 h 20.10279 c 2.4348,0 4.39478,-1.95998 4.39478,-4.39477 V 59.578123 c 0,-2.434794 -1.95998,-4.394775 -4.39478,-4.394775 z M 8.5627045,68.36827 H 29.16377 c 0.608697,0 1.098843,0.489546 1.098843,1.098245 v 35.709105 c 0,0.6087 -0.490146,1.09885 -1.098843,1.09885 H 8.5627045 c -0.6086989,0 -1.098843,-0.49015 -1.098843,-1.09885 V 69.466515 c 0,-0.608699 0.4901441,-1.098245 1.098843,-1.098245 z m 29.5108475,0 H 71.38399 c 0.608699,0 1.098246,0.489546 1.098246,1.098245 v 21.425346 c 0,0.608699 -0.489547,1.098843 -1.098246,1.098843 H 38.073552 c -0.608699,0 -1.098845,-0.490144 -1.098845,-1.098843 V 69.466515 c 0,-0.608699 0.490146,-1.098245 1.098845,-1.098245 z m 38.630586,0 h 33.311042 c 0.6087,0 1.09824,0.489546 1.09824,1.098245 v 21.425346 c 0,0.608699 -0.48954,1.098843 -1.09824,1.098843 H 76.704138 c -0.608698,0 -1.098245,-0.490144 -1.098245,-1.098843 V 69.466515 c 0,-0.608699 0.489547,-1.098245 1.098245,-1.098245 z m 38.631182,0 h 33.31045 c 0.60869,0 1.09883,0.489546 1.09883,1.098245 v 21.425346 c 0,0.608699 -0.49014,1.098843 -1.09883,1.098843 h -33.31045 c -0.6087,0 -1.09824,-0.490144 -1.09824,-1.098843 V 69.466515 c 0,-0.608699 0.48954,-1.098245 1.09824,-1.098245 z m 38.63119,0 h 33.31044 c 0.6087,0 1.09885,0.489546 1.09885,1.098245 v 21.425346 c 0,0.608699 -0.49015,1.098843 -1.09885,1.098843 h -33.31044 c -0.6087,0 -1.09824,-0.490144 -1.09824,-1.098843 V 69.466515 c 0,-0.608699 0.48954,-1.098245 1.09824,-1.098245 z" />
    <circle
       style="fill:#333333;fill-opacity:1;stroke-width:0.0873502;stroke-linecap:round;stroke-linejoin:round"
       id="path1"
       cx="42.760708"
       cy="140.47237"
       r="11.124673" />
    <circle
       style="fill:#333333;fill-opacity:1;stroke-width:0.0873502;stroke-linecap:round;stroke-linejoin:round"
       id="circle1"
       cx="159.77577"
       cy="140.47237"
       r="11.124673" />
    <g
       id="g9">
      <path
         style="fill:none;fill-rule:evenodd;stroke:#333333;stroke-width:2.31507;stroke-linecap:round;stroke-linejoin:miter;stroke-dasharray:none;stroke-opacity:1"
         d="m 9.6613716,101.01125 5.7683484,8.51521"
         id="path12" />
      <path
         style="fill:none;fill-rule:evenodd;stroke:#333333;stroke-width:2.31507;stroke-linecap:round;stroke-linejoin:miter;stroke-dasharray:none;stroke-opacity:1"
         d="m 11.858852,105.68087 -8.5152087,5.76836"
         id="path13" />
    </g>
  </g>
</svg>
